<?xml version="1.0" encoding="UTF-8" standalone="no"?>
<svg
   width="120"
   height="120"
   viewBox="0 0 31.749999 31.75"
   version="1.1"
   id="svg1"
   xmlns="http://www.w3.org/2000/svg"
   xmlns:svg="http://www.w3.org/2000/svg">
  <defs
     id="defs1" />
  <g
     id="layer1"
     transform="translate(-1.0583336,-1.0583335)">
    <g
       id="g1"
       transform="matrix(0.0839389,0,0,0.0839389,5.9375622,2.6051197)"
       style="fill:#f55036;fill-opacity:1">
      <path
         d="M 131.6,6.5 C 69.5,6 18.7,55.8 18.1,117.9 17.5,180 67.4,230.8 129.5,231.4 c 0.7,0 1.4,0 2.1,0 h 37 v -42.1 h -37 C 92.8,189.8 61,158.7 60.5,119.9 60,81.1 91.1,49.3 129.9,48.8 c 0.5,0 1.1,0 1.6,0 38.7,0 70.4,31.5 70.4,70.3 v 0 103.5 0 c 0,38.5 -31.3,69.8 -69.7,70.3 -18.4,-0.2 -35.9,-7.5 -48.9,-20.6 L 53.5,302 c 20.7,20.8 48.7,32.6 78,32.9 v 0 h 1.5 v 0 C 194.3,334 243.6,284.3 243.9,223 V 116.2 C 242.4,55.2 192.5,6.6 131.6,6.5 Z"
         id="path2"
         style="fill:#f55036;fill-opacity:1" />
    </g>
  </g>
</svg>
