<?xml version="1.0" encoding="UTF-8" standalone="no"?>
<svg
   version="1.1"
   id="Layer_1"
   x="0px"
   y="0px"
   viewBox="0 0 500 500"
   style="enable-background:new 0 0 500 500;"
   xml:space="preserve"
   xmlns="http://www.w3.org/2000/svg"
   xmlns:svg="http://www.w3.org/2000/svg"><defs
   id="defs119" />

<g
   id="g94">
</g>
<g
   id="g119">
	<rect
   x="352.273"
   y="45.455"
   width="81.818"
   height="81.818"
   id="rect94" />
	<rect
   x="393.182"
   y="45.455"
   style="fill:#F7D046;"
   width="81.818"
   height="81.818"
   id="rect95" />
	<rect
   x="25"
   y="45.455"
   width="81.818"
   height="81.818"
   id="rect96" />
	<rect
   x="25"
   y="127.273"
   width="81.818"
   height="81.818"
   id="rect97" />
	<rect
   x="25"
   y="209.091"
   width="81.818"
   height="81.818"
   id="rect98" />
	<rect
   x="25"
   y="290.909"
   width="81.818"
   height="81.818"
   id="rect99" />
	<rect
   x="25"
   y="372.727"
   width="81.818"
   height="81.818"
   id="rect100" />
	<rect
   x="65.909"
   y="45.455"
   style="fill:#F7D046;"
   width="81.818"
   height="81.818"
   id="rect101" />
	<rect
   x="393.182"
   y="127.273"
   style="fill:#F2A73B;"
   width="81.818"
   height="81.818"
   id="rect102" />
	<rect
   x="65.909"
   y="127.273"
   style="fill:#F2A73B;"
   width="81.818"
   height="81.818"
   id="rect103" />
	<rect
   x="270.455"
   y="127.273"
   width="81.818"
   height="81.818"
   id="rect104" />
	<rect
   x="311.364"
   y="127.273"
   style="fill:#F2A73B;"
   width="81.818"
   height="81.818"
   id="rect105" />
	<rect
   x="147.727"
   y="127.273"
   style="fill:#F2A73B;"
   width="81.818"
   height="81.818"
   id="rect106" />
	<rect
   x="229.545"
   y="209.091"
   style="fill:#EE792F;"
   width="81.818"
   height="81.818"
   id="rect107" />
	<rect
   x="311.364"
   y="209.091"
   style="fill:#EE792F;"
   width="81.818"
   height="81.818"
   id="rect108" />
	<rect
   x="147.727"
   y="209.091"
   style="fill:#EE792F;"
   width="81.818"
   height="81.818"
   id="rect109" />
	<rect
   x="188.636"
   y="290.909"
   width="81.818"
   height="81.818"
   id="rect110" />
	<rect
   x="229.545"
   y="290.909"
   style="fill:#EB5829;"
   width="81.818"
   height="81.818"
   id="rect111" />
	<rect
   x="393.182"
   y="209.091"
   style="fill:#EE792F;"
   width="81.818"
   height="81.818"
   id="rect112" />
	<rect
   x="65.909"
   y="209.091"
   style="fill:#EE792F;"
   width="81.818"
   height="81.818"
   id="rect113" />
	<rect
   x="352.273"
   y="290.909"
   width="81.818"
   height="81.818"
   id="rect114" />
	<rect
   x="393.182"
   y="290.909"
   style="fill:#EB5829;"
   width="81.818"
   height="81.818"
   id="rect115" />
	<rect
   x="352.273"
   y="372.727"
   width="81.818"
   height="81.818"
   id="rect116" />
	<rect
   x="65.909"
   y="290.909"
   style="fill:#EB5829;"
   width="81.818"
   height="81.818"
   id="rect117" />
	<rect
   x="393.182"
   y="372.727"
   style="fill:#EA3326;"
   width="81.818"
   height="81.818"
   id="rect118" />
	<rect
   x="65.909"
   y="372.727"
   style="fill:#EA3326;"
   width="81.818"
   height="81.818"
   id="rect119" />
</g>
</svg>
