<?xml version="1.0" encoding="UTF-8" standalone="no"?>
<svg
   viewBox="0 0 320 320"
   version="1.1"
   id="svg7"
   width="320"
   height="320"
   xmlns="http://www.w3.org/2000/svg"
   xmlns:svg="http://www.w3.org/2000/svg">
  <defs
     id="defs7" />
  <path
     d="M 298.89867,130.97427 C 306.25636,109.18381 303.72272,85.313302 291.9565,65.492879 274.26156,35.092232 238.68927,19.451898 203.94801,26.812055 188.49281,9.6316894 166.288,-0.13851872 143.00893,0.00148426 107.49744,-0.07851744 75.989107,22.481963 65.064056,55.822673 42.25117,60.432772 22.559727,74.523072 11.036736,94.493497 -6.7899476,124.81414 -2.7259906,163.03495 21.090216,189.03551 c -7.357688,21.79046 -4.824049,45.66097 6.942171,65.48139 17.694935,30.40065 53.267228,46.04098 88.008483,38.68083 15.44507,17.18036 37.66001,26.95057 60.93909,26.80057 35.53175,0.09 67.05022,-22.49048 77.97527,-55.86119 22.81289,-4.6101 42.50433,-18.7004 54.02732,-38.67083 17.80642,-30.32064 13.73233,-68.51146 -10.07375,-94.51201 z M 177.00023,299.08785 c -14.21879,0.02 -27.99165,-4.8901 -38.90656,-13.88029 0.49659,-0.26001 1.35803,-0.73002 1.91543,-1.07003 l 64.57739,-36.80078 c 3.30386,-1.85004 5.33078,-5.32011 5.31051,-9.07019 v -89.83192 l 27.29236,15.55033 c 0.2939,0.14001 0.48646,0.42001 0.52699,0.74002 v 74.39158 c -0.0405,33.08071 -27.19101,59.90128 -60.71612,59.97128 z M 46.426607,244.05668 c -7.124593,-12.14026 -9.688636,-26.37056 -7.246208,-40.18086 0.476324,0.28001 1.317492,0.79002 1.915431,1.13003 l 64.57739,36.80078 c 3.27346,1.89004 7.32728,1.89004 10.61088,0 l 78.83671,-44.92096 v 31.10067 c 0.0203,0.32 -0.13175,0.63001 -0.38511,0.83002 l -65.27668,37.19079 C 100.38298,282.5275 63.24997,272.70729 46.436741,244.05668 Z M 29.430956,104.96372 c 7.094189,-12.160259 18.292874,-21.460457 31.62995,-26.29056 0,0.550012 -0.0304,1.520033 -0.0304,2.200047 v 73.611563 c -0.02027,3.74008 2.006642,7.21016 5.300373,9.06019 l 78.836711,44.91096 -27.29236,15.55033 c -0.27364,0.18001 -0.61821,0.21001 -0.92225,0.08 L 51.666172,186.86546 C 22.650938,170.28511 12.698804,133.65433 29.420821,104.97372 Z m 224.237184,51.49109 -78.83671,-44.92095 27.29236,-15.540331 c 0.27363,-0.180004 0.61821,-0.210004 0.92225,-0.08 l 65.28681,37.190791 c 29.0659,16.57035 39.02817,53.26113 22.23521,81.94174 -7.10432,12.14026 -18.29287,21.44046 -31.61981,26.28056 v -75.81161 c 0.0304,-3.74008 -1.98637,-7.20016 -5.26997,-9.0602 z m 27.16062,-40.34086 c -0.47633,-0.29 -1.3175,-0.79001 -1.91544,-1.13002 L 214.33593,78.18315 c -3.27346,-1.890041 -7.32728,-1.890041 -10.61088,0 L 124.88834,123.1041 V 92.003444 c -0.0203,-0.320007 0.13175,-0.630013 0.38511,-0.830017 l 65.27668,-37.160792 c 29.07604,-16.550353 66.24959,-6.700143 83.01215,22.000469 7.08405,12.120258 9.6481,26.310556 7.24621,40.100846 z M 110.05135,171.54513 82.748856,155.9948 c -0.293902,-0.14 -0.486458,-0.42001 -0.526997,-0.74001 V 80.863207 c 0.02027,-33.120706 27.251821,-59.961278 60.817471,-59.941277 14.19851,0 27.94097,4.920105 38.85589,13.880295 -0.4966,0.260006 -1.3479,0.730016 -1.91543,1.070023 l -64.5774,36.800784 c -3.30386,1.85004 -5.33077,5.310113 -5.3105,9.060193 l -0.0405,89.791905 z m 14.82685,-31.54067 35.11624,-20.01042 35.11624,20.00042 v 40.01086 l -35.11624,20.00042 -35.11624,-20.00042 z"
     id="path7"
     style="stroke-width:1.00672" />
</svg>
