<?xml version="1.0" encoding="UTF-8"?>
<svg fill="none" version="1.1" viewBox="0 0 42 42" xmlns="http://www.w3.org/2000/svg">
 <g transform="translate(-.20472 .0012327)">
  <path d="m16.44 0.964 4.921 7.79c0.79 1.252-0.108 2.883-1.588 2.883h-2.013v11.663h-2.91v-23.212c0.61 0 1.22 0.292 1.59 0.876z" fill="#8fbcfa"/>
  <path d="m8.342 8.755 4.921-7.791a1.864 1.864 0 0 1 1.59-0.876v23.212a4.87 4.87 0 0 0-0.252-6e-3c-0.99 0-1.907 0.311-2.658 0.842v-12.499h-2.013c-1.48 0-2.38-1.631-1.589-2.882z" fill="#468bff"/>
  <path d="m30.278 31h-12.247a4.596 4.596 0 0 0 1.219-2.91h22.577c0 0.61-0.292 1.22-0.875 1.59l-7.792 4.92c-1.251 0.791-2.883-0.108-2.883-1.588v-2.012z" fill="#fdbb11"/>
  <path d="m33.16 21.581 7.79 4.921c0.585 0.369 0.876 0.979 0.876 1.589h-22.576a4.619 4.619 0 0 0-0.858-2.91h11.887v-2.011c0-1.48 1.631-2.38 2.882-1.589z" fill="#f6d785"/>
  <path d="m8.24 34.25-7.107 7.108a1.864 1.864 0 0 0 1.742 0.504l8.989-2.03c1.443-0.325 1.961-2.114 0.915-3.16l-1.423-1.423 5.356-5.356a2.805 2.805 0 0 0 0-3.966l-0.074-0.075z" fill="#ff9a9d"/>
  <path d="m7.243 31.135 5.355-5.356a2.805 2.805 0 0 1 3.967 0l0.074 0.074-15.505 15.505a1.864 1.864 0 0 1-0.504-1.742l2.029-8.989c0.325-1.444 2.115-1.961 3.161-0.915z" fill="#fe363b"/>
 </g>
</svg>
